<?xml version="1.0"?>
<svg xmlns="http://www.w3.org/2000/svg" xmlns:xlink="http://www.w3.org/1999/xlink" version="1.1" id="Layer_1" x="0px" y="0px" viewBox="0 0 440 440" style="enable-background:new 0 0 440 440;" xml:space="preserve" width="512px" height="512px" class=""><g><g>
	<polygon points="0,47.696 0,292.875 136.195,170.285  " data-original="#000000" class="active-path" data-old_color="#000000" fill="#F6F1F1"/>
	<polygon points="372.579,27.514 22.421,27.514 197.5,185.104  " data-original="#000000" class="active-path" data-old_color="#000000" fill="#F6F1F1"/>
	<path d="M286.693,195.387c16.413-7.545,34.661-11.76,53.877-11.76c19.432,0,37.874,4.313,54.43,12.019V47.696L258.806,170.285   L286.693,195.387z" data-original="#000000" class="active-path" data-old_color="#000000" fill="#F6F1F1"/>
	<path d="M260.068,211.785l-23.684-21.318l-38.885,35l-38.884-35L22.421,313.056h188.719   C211.141,272.092,230.274,235.518,260.068,211.785z" data-original="#000000" class="active-path" data-old_color="#000000" fill="#F6F1F1"/>
	<path d="M340.57,213.627c-54.826,0-99.43,44.604-99.43,99.429s44.604,99.43,99.43,99.43S440,367.882,440,313.056   S395.396,213.627,340.57,213.627z M325.999,375.127l-62.071-62.071l62.071-62.071l14.143,14.143l-47.929,47.929l47.929,47.929   L325.999,375.127z M400.142,360.985l-14.143,14.143l-62.071-62.071l62.071-62.071l14.143,14.143l-47.929,47.929L400.142,360.985z" data-original="#000000" class="active-path" data-old_color="#000000" fill="#F6F1F1"/>
</g></g> </svg>
