<?xml version="1.0"?>
<svg xmlns="http://www.w3.org/2000/svg" height="512px" viewBox="0 -75 512 512" width="512px" class=""><g><path d="m384.769531 298.027344c-1.875 0-3.757812-.449219-5.488281-1.359375-3.894531-2.042969-6.3125-6.046875-6.3125-10.445313v-21.945312h-50.65625c-7.855469 0-14.242188-6.390625-14.242188-14.246094v-29.980469c0-7.851562 6.386719-14.242187 14.242188-14.242187h50.65625v-21.949219c0-4.394531 2.417969-8.398437 6.3125-10.445313 3.894531-2.042968 8.5625-1.761718 12.183594.734376l61.816406 42.59375c6.019531 4.148437 9.613281 10.992187 9.613281 18.304687 0 7.308594-3.59375 14.148437-9.613281 18.296875l-61.820312 42.597656c-2.011719 1.382813-4.34375 2.085938-6.691407 2.085938zm-56.699219-53.753906h54.898438c5.523438 0 10 4.480468 10 10v16.335937l48.964844-33.738281c.792968-.546875.960937-1.296875.960937-1.828125 0-.535157-.167969-1.285157-.960937-1.832031l-48.964844-33.738282v16.335938c0 5.519531-4.476562 10-10 10h-54.898438zm0 0" data-original="#000000" class="active-path" data-old_color="#F7F6F6" fill="#FFFEFE"/><path d="m66.105469 153.820312c-5.523438 0-10 4.480469-10 10 0 5.523438 4.476562 10 10 10h.023437c5.523438 0 9.988282-4.476562 9.988282-10 0-5.519531-4.488282-10-10.011719-10zm0 0" data-original="#000000" class="active-path" data-old_color="#F7F6F6" fill="#FFFEFE"/><path d="m385.480469 108.523438c-3.675781 0-7.320313.15625-10.917969.46875v-67.351563c0-11.679687-4.835938-22.25-12.605469-29.820313-.121093-.125-.246093-.253906-.375-.375-7.773437-7.378906-17.953125-11.445312-28.660156-11.445312h-291.28125c-10.710937 0-20.886719 4.066406-28.664063 11.445312-.128906.125-.253906.25-.375.375-7.769531 7.570313-12.601562 18.140626-12.601562 29.820313v161.761719c0 10.492187 3.902344 20.089844 10.328125 27.417968.144531.183594.292969.363282.453125.539063 2.96875 3.273437 6.414062 6.023437 10.183594 8.175781 6.09375 3.503906 13.152344 5.507813 20.675781 5.507813h217.714844c5.113281 65.105469 59.730469 116.519531 126.125 116.519531 69.761719-.003906 126.519531-56.757812 126.519531-126.519531s-56.757812-126.519531-126.519531-126.519531zm-132.148438-13.785157-49.570312 43.707031c-4.699219 4.144532-10.589844 6.214844-16.480469 6.214844-4.511719 0-9.019531-1.210937-12.996094-3.640625-.242187-.148437-.484375-.300781-.722656-.460937-.402344-.261719-.792969-.539063-1.179688-.828125-.539062-.402344-1.070312-.832031-1.582031-1.285157l-49.570312-43.707031c-.003907 0-.003907 0-.003907 0l-84.203124-74.242187c1.488281-.324219 3.03125-.496094 4.617187-.496094h291.28125c1.582031 0 3.128906.171875 4.613281.496094l-84.164062 74.207031c-.011719.015625-.027344.023437-.039063.035156zm99.65625-61.203125c1.015625 2.503906 1.574219 5.242188 1.574219 8.105469v70.6875c-19.84375 4.96875-37.648438 14.519531-52.363281 27.386719l-28.542969-36.230469zm-311.648437 191.503906c-.015625 0-.03125 0-.042969 0-.085937 0-.171875-.003906-.257813-.003906-.015624 0-.027343-.003906-.046874-.003906-3.039063-.089844-6.003907-.824219-8.707032-2.121094l15.621094-19.824218c3.417969-4.339844 2.671875-10.625-1.667969-14.046876-4.335937-3.414062-10.625-2.667968-14.042969 1.667969l-12.039062 15.285157c-.101562-.847657-.15625-1.710938-.15625-2.589844v-161.761719c0-2.863281.558594-5.601563 1.574219-8.105469l79.332031 69.949219-16.78125 21.300781c-3.417969 4.339844-2.671875 10.625 1.667969 14.042969 4.339843 3.417969 10.625 2.675781 14.042969-1.664063l16.09375-20.433593 41.644531 36.71875c14.6875 12.949219 35.851562 14.667969 52.261719 5.152343 2.507812-1.453124 4.90625-3.171874 7.152343-5.152343l41.644531-36.71875 29.488282 37.433593c-6.953125 8.382813-12.832032 17.660157-17.445313 27.617188-.019531.039062-.035156.078125-.054687.117188-.03125.074218-.066406.144531-.101563.21875-6.195312 13.441406-9.992187 27.941406-11.164062 42.921874h-217.714844c-.101563.003907-.199219 0-.300781 0zm344.140625 116.519532c-58.734375 0-106.519531-47.78125-106.519531-106.519532 0-.214843.003906-.429687.003906-.644531 0-.070312 0-.144531 0-.214843.003906-.148438.003906-.292969.003906-.441407.003906-.070312.003906-.140625.003906-.210937 0-.011719 0-.019532 0-.027344.003906-.140625.003906-.285156.007813-.425781 0-.066407.003906-.136719.003906-.203125 0-.011719 0-.023438 0-.039063.003906-.136719.007813-.273437.007813-.410156.003906-.0625.003906-.121094.007812-.183594 0-.027343 0-.058593 0-.085937.003906-.136719.007812-.277344.011719-.417969.003906-.035156.003906-.074219.003906-.109375 0-.046875.003906-.089844.003906-.136719.003907-.160156.011719-.320312.015625-.480469 0-.007812.003906-.019531.003906-.027343 0-.042969 0-.085938.003907-.132813.007812-.191406.015625-.382812.023437-.574218 0-.015626 0-.035157.003906-.050782 2.527344-56.507812 49.289063-101.699218 106.410157-101.699218 58.734375 0 106.519531 47.78125 106.519531 106.515624 0 58.738282-47.785156 106.519532-106.519531 106.519532zm0 0" data-original="#000000" class="active-path" data-old_color="#F7F6F6" fill="#FFFEFE"/></g> </svg>
