<?xml version="1.0"?>
<svg xmlns="http://www.w3.org/2000/svg" xmlns:xlink="http://www.w3.org/1999/xlink" version="1.1" id="Capa_1" x="0px" y="0px" viewBox="0 0 219.152 219.152" style="enable-background:new 0 0 219.152 219.152;" xml:space="preserve" width="512px" height="512px" class=""><g><g>
	<path d="M211.652,0H7.501c-4.142,0-7.5,3.358-7.5,7.5v204.152c0,4.143,3.358,7.5,7.5,7.5h204.151c4.142,0,7.5-3.357,7.5-7.5V7.5   C219.152,3.358,215.794,0,211.652,0z M204.152,204.152H15.001V15h189.151V204.152z" data-original="#000000" class="active-path" data-old_color="#FBF7F7" fill="#FBF9F9"/>
	<path d="M58.539,168.113h68.05c4.142,0,7.5-3.357,7.5-7.5v-26.525h26.525c4.142,0,7.5-3.357,7.5-7.5V58.537   c0-4.143-3.358-7.5-7.5-7.5h-68.05c-4.142,0-7.5,3.357-7.5,7.5v26.525H58.539c-4.142,0-7.5,3.357-7.5,7.5v68.051   C51.039,164.756,54.396,168.113,58.539,168.113z M100.064,66.037h53.05v53.051h-19.025V92.563c0-4.143-3.358-7.5-7.5-7.5h-26.524   V66.037z M66.039,100.063h53.05v53.051h-53.05V100.063z" data-original="#000000" class="active-path" data-old_color="#FBF7F7" fill="#FBF9F9"/>
</g></g> </svg>
